<svg width="21" height="18" viewBox="0 0 21 18" fill="none" xmlns="http://www.w3.org/2000/svg">
<path d="M13 7.99997H12V6.99997C12 6.73475 11.8946 6.4804 11.7071 6.29286C11.5196 6.10533 11.2652 5.99997 11 5.99997C10.7348 5.99997 10.4804 6.10533 10.2929 6.29286C10.1054 6.4804 10 6.73475 10 6.99997V7.99997H9C8.73478 7.99997 8.48043 8.10533 8.29289 8.29286C8.10536 8.4804 8 8.73475 8 8.99997C8 9.26519 8.10536 9.51954 8.29289 9.70708C8.48043 9.89461 8.73478 9.99997 9 9.99997H10V11C10 11.2652 10.1054 11.5195 10.2929 11.7071C10.4804 11.8946 10.7348 12 11 12C11.2652 12 11.5196 11.8946 11.7071 11.7071C11.8946 11.5195 12 11.2652 12 11V9.99997H13C13.2652 9.99997 13.5196 9.89461 13.7071 9.70708C13.8946 9.51954 14 9.26519 14 8.99997C14 8.73475 13.8946 8.4804 13.7071 8.29286C13.5196 8.10533 13.2652 7.99997 13 7.99997ZM19.16 1.99997C18.0937 0.944674 16.6853 0.305241 15.189 0.197052C13.6927 0.0888631 12.207 0.519043 11 1.40997C9.72766 0.463607 8.14399 0.0344814 6.56792 0.209007C4.99185 0.383534 3.54044 1.14875 2.50597 2.35055C1.47151 3.55236 0.930823 5.10149 0.992802 6.68598C1.05478 8.27048 1.71482 9.77264 2.84 10.89L8.84 16.94C9.4025 17.5018 10.165 17.8173 10.96 17.8173C11.755 17.8173 12.5175 17.5018 13.08 16.94L19.08 10.89C19.6709 10.3126 20.1419 9.62417 20.4659 8.8642C20.79 8.10423 20.9606 7.28772 20.968 6.4616C20.9755 5.63548 20.8195 4.81603 20.5093 4.05035C20.199 3.28467 19.7404 2.58786 19.16 1.99997ZM17.75 9.45997L11.75 15.46C11.657 15.5537 11.5464 15.6281 11.4246 15.6789C11.3027 15.7296 11.172 15.7558 11.04 15.7558C10.908 15.7558 10.7773 15.7296 10.6554 15.6789C10.5336 15.6281 10.423 15.5537 10.33 15.46L4.33 9.45997C3.54576 8.65831 3.10661 7.58144 3.10661 6.45997C3.10661 5.3385 3.54576 4.26162 4.33 3.45997C5.12916 2.67096 6.20697 2.22854 7.33 2.22854C8.45303 2.22854 9.53085 2.67096 10.33 3.45997C10.423 3.5537 10.5336 3.62809 10.6554 3.67886C10.7773 3.72963 10.908 3.75577 11.04 3.75577C11.172 3.75577 11.3027 3.72963 11.4246 3.67886C11.5464 3.62809 11.657 3.5537 11.75 3.45997C12.5492 2.67096 13.627 2.22854 14.75 2.22854C15.873 2.22854 16.9508 2.67096 17.75 3.45997C18.5403 4.26252 18.9832 5.34365 18.9832 6.46997C18.9832 7.59629 18.5403 8.67742 17.75 9.47997V9.45997Z" fill="black"/>
</svg>
